<?xml version="1.0" standalone="no"?>
<svg xmlns:xlink="http://www.w3.org/1999/xlink" id="wave" style="transform:rotate(0deg); transition: 0.3s" viewBox="0 0 1440 490" version="1.1" xmlns="http://www.w3.org/2000/svg"><defs><linearGradient id="sw-gradient-0" x1="0" x2="0" y1="1" y2="0"><stop stop-color="rgba(173, 52, 62, 1)" offset="0%"/><stop stop-color="rgba(205.266, 146.675, 151.517, 1)" offset="100%"/></linearGradient></defs><path style="transform:translate(0, 0px); opacity:1" fill="url(#sw-gradient-0)" d="M0,245L120,228.7C240,212,480,180,720,187.8C960,196,1200,245,1440,236.8C1680,229,1920,163,2160,171.5C2400,180,2640,261,2880,318.5C3120,376,3360,408,3600,408.3C3840,408,4080,376,4320,375.7C4560,376,4800,408,5040,367.5C5280,327,5520,212,5760,171.5C6000,131,6240,163,6480,179.7C6720,196,6960,196,7200,204.2C7440,212,7680,229,7920,253.2C8160,278,8400,310,8640,277.7C8880,245,9120,147,9360,98C9600,49,9840,49,10080,89.8C10320,131,10560,212,10800,245C11040,278,11280,261,11520,277.7C11760,294,12000,343,12240,367.5C12480,392,12720,392,12960,383.8C13200,376,13440,359,13680,326.7C13920,294,14160,245,14400,196C14640,147,14880,98,15120,138.8C15360,180,15600,310,15840,351.2C16080,392,16320,343,16560,302.2C16800,261,17040,229,17160,212.3L17280,196L17280,490L17160,490C17040,490,16800,490,16560,490C16320,490,16080,490,15840,490C15600,490,15360,490,15120,490C14880,490,14640,490,14400,490C14160,490,13920,490,13680,490C13440,490,13200,490,12960,490C12720,490,12480,490,12240,490C12000,490,11760,490,11520,490C11280,490,11040,490,10800,490C10560,490,10320,490,10080,490C9840,490,9600,490,9360,490C9120,490,8880,490,8640,490C8400,490,8160,490,7920,490C7680,490,7440,490,7200,490C6960,490,6720,490,6480,490C6240,490,6000,490,5760,490C5520,490,5280,490,5040,490C4800,490,4560,490,4320,490C4080,490,3840,490,3600,490C3360,490,3120,490,2880,490C2640,490,2400,490,2160,490C1920,490,1680,490,1440,490C1200,490,960,490,720,490C480,490,240,490,120,490L0,490Z"/></svg>